<svg width="18" height="11" viewBox="0 0 18 11" fill="none" xmlns="http://www.w3.org/2000/svg">
<path d="M17.2863 6.37885C17.2593 5.98914 17.2047 5.56404 17.1242 5.11512C17.0431 4.66286 16.9385 4.23531 16.8134 3.84453C16.6842 3.44063 16.5084 3.04177 16.2911 2.65954C16.0656 2.26281 15.8007 1.91735 15.5034 1.63308C15.1926 1.33569 14.8121 1.09659 14.372 0.922179C13.9335 0.748687 13.4475 0.660797 12.9276 0.660797C12.7234 0.660797 12.526 0.744568 12.1447 0.992827C11.91 1.14587 11.6355 1.32287 11.3291 1.51864C11.0671 1.68557 10.7122 1.84198 10.2738 1.98358C9.8461 2.12197 9.41183 2.19216 8.98322 2.19216C8.5546 2.19216 8.12048 2.12197 7.69232 1.98358C7.25439 1.84213 6.89948 1.68573 6.63779 1.5188C6.33429 1.32486 6.05963 1.14786 5.82144 0.992674C5.44058 0.744415 5.24298 0.660645 5.03882 0.660645C4.5188 0.660645 4.03296 0.748687 3.59457 0.922332C3.15482 1.09643 2.77411 1.33554 2.46298 1.63324C2.16589 1.91766 1.90085 2.26296 1.67563 2.65954C1.4585 3.04177 1.28271 3.44048 1.15332 3.84468C1.02835 4.23546 0.923828 4.66286 0.842651 5.11512C0.762238 5.56343 0.707611 5.98869 0.680603 6.37931C0.654053 6.762 0.640625 7.15918 0.640625 7.56034C0.640625 8.60434 0.972504 9.44952 1.62695 10.0728C2.27332 10.6879 3.12857 11 4.16861 11H13.7987C14.8388 11 15.6937 10.6881 16.3402 10.0728C16.9948 9.44998 17.3267 8.60464 17.3267 7.56018C17.3266 7.1572 17.313 6.75971 17.2863 6.37885Z" fill="#B1B1B1"/>
</svg>
